HIERARCHY
ROOT Hips
{
  OFFSET -31.5692 30.0904 122.763
  CHANNELS 6 Xposition Yposition Zposition Zrotation Xrotation Yrotation
  JOINT LeftUpLeg
  {
    OFFSET 8.64259 1.95398 -2.38835
    CHANNELS 3 Zrotation Xrotation Yrotation
    JOINT LeftLeg
    {
      OFFSET 43.7702 0 0
      CHANNELS 3 Zrotation Xrotation Yrotation
      JOINT LeftFoot
      {
        OFFSET 40.6238 0 0
        CHANNELS 3 Zrotation Xrotation Yrotation
        JOINT LeftToeBase
        {
          OFFSET 12.7242 0 0
          CHANNELS 3 Zrotation Xrotation Yrotation
          End Site
          {
            OFFSET 0 0 0
          }
        }
      }
    }
  }
  JOINT RightUpLeg
  {
    OFFSET -8.2249 1.95398 -2.59336
    CHANNELS 3 Zrotation Xrotation Yrotation
    JOINT RightLeg
    {
      OFFSET 43.5653 0 0
      CHANNELS 3 Zrotation Xrotation Yrotation
      JOINT RightFoot
      {
        OFFSET 40.6238 0 0
        CHANNELS 3 Zrotation Xrotation Yrotation
        JOINT RightToeBase
        {
          OFFSET 12.7242 0 0
          CHANNELS 3 Zrotation Xrotation Yrotation
          End Site
          {
            OFFSET 0 0 0
          }
        }
      }
    }
  }
  JOINT Spine
  {
    OFFSET 0.165834 0.87714 6.61349
    CHANNELS 3 Zrotation Xrotation Yrotation
    JOINT Spine1
    {
      OFFSET 7.38963 1.71661e-005 0
      CHANNELS 3 Zrotation Xrotation Yrotation
      JOINT Spine2
      {
        OFFSET 11.9445 1.14441e-005 0
        CHANNELS 3 Zrotation Xrotation Yrotation
        JOINT Spine3
        {
          OFFSET 14.7254 4.19617e-005 0
          CHANNELS 3 Zrotation Xrotation Yrotation
          JOINT Spine4
          {
            OFFSET 10.9679 0 0
            CHANNELS 3 Zrotation Xrotation Yrotation
            JOINT RightShoulder
            {
              OFFSET 2.46616 -1.6653 3.69651
              CHANNELS 3 Zrotation Xrotation Yrotation
              JOINT RightArm
              {
                OFFSET 13.0012 0 0
                CHANNELS 3 Zrotation Xrotation Yrotation
                JOINT RightForeArm
                {
                  OFFSET 28.7848 1.62311e-005 0
                  CHANNELS 3 Zrotation Xrotation Yrotation
                  JOINT RightHand
                  {
                    OFFSET 26.5688 1.62095e-005 0
                    CHANNELS 3 Zrotation Xrotation Yrotation
                    End Site
                    {
                      OFFSET 0 0 0
                    }
                  }
                }
              }
            }
            JOINT LeftShoulder
            {
              OFFSET 2.38034 -1.29275 -3.7523
              CHANNELS 3 Zrotation Xrotation Yrotation
              JOINT LeftArm
              {
                OFFSET 16.3182 6.07031e-005 0
                CHANNELS 3 Zrotation Xrotation Yrotation
                JOINT LeftForeArm
                {
                  OFFSET 27.0901 0 0
                  CHANNELS 3 Zrotation Xrotation Yrotation
                  JOINT LeftHand
                  {
                    OFFSET 24.5451 1.51738e-005 0
                    CHANNELS 3 Zrotation Xrotation Yrotation
                    End Site
                    {
                      OFFSET 0 0 0
                    }
                  }
                }
              }
            }
            JOINT Neck
            {
              OFFSET 5.0226 -0.0266342 0
              CHANNELS 3 Zrotation Xrotation Yrotation
              JOINT Head
              {
                OFFSET 6.69364 2.86102e-005 0
                CHANNELS 3 Zrotation Xrotation Yrotation
                End Site
                {
                  OFFSET 0 0 0
                }
              }
            }
          }
        }
      }
    }
  }
}
MOTION
Frames:	6
Frame Time:	0.0416667
48.885 102.586 -262.823 -113.84 -82.1068 -116.37 -173.152 -3.66655 90.4463 -6.93746 15.338 0.227358 66.7616 5.70029 2.76772 20.7335 -7.49551 8.18141 172.914 -2.45519 90.1641 -12.9548 -8.97647 -0.37735 69.3055 -4.85344 1.93021 26.398 1.09156 0.108064 0.512921 7.55759 -90.0039 11.7597 1.01836 -0.115243 0.0890816 1.0123 -0.159963 -22.4492 1.0059 0.196172 -2.43655 1.0059 0.196169 92.6769 -29.0914 -101.697 37.4293 -14.2223 -11.2664 16.272 -31.0573 -5.02218 -28.2532 0.135012 -10.9775 -87.065 -51.8235 83.4251 -22.4795 12.3331 -14.0712 -5.17472 28.2565 -0.00594445 7.21922 -1.00223 -23.481 5.2598 0.50927 0.127328 -10.425 0.564888 -1.4395 
48.42 102.588 -262.75 -113.206 -82.3288 -115.996 -173.399 -3.21411 90.2949 -7.51066 12.9741 0.433592 67.1505 5.80395 1.02272 22.0565 -5.35872 5.10525 172.808 -2.43745 90.1976 -12.6877 -9.95015 -0.246456 68.7399 -4.78886 0.335417 27.0973 0.59622 0.867379 0.326506 7.50586 -89.9923 11.8628 0.652957 -0.0543931 0.19199 0.649937 -0.0830819 -22.3445 0.63911 0.144368 -2.33185 0.639115 0.144375 90.832 -28.9442 -105.494 40.8232 -7.87995 -3.93844 3.1682 -39.48 -17.5893 -22.8782 -0.557494 -9.99584 -86.2939 -52.4991 84.6611 -22.4814 11.4633 -11.1471 -4.30618 26.9591 -0.00587447 6.90691 -0.663824 -20.0536 3.07039 1.73385 1.15431 -9.02548 1.60692 -1.85327 
47.6812 102.606 -262.736 -112.333 -82.1974 -115.395 -173.602 -2.76418 90.4528 -8.34383 11.4252 0.818575 66.9615 5.19327 -1.41954 24.0702 -5.83046 8.91832 172.847 -2.53546 90.3485 -12.616 -9.7109 -0.175018 68.8954 -5.02417 0.561827 27.1272 0.560495 0.968396 0.365669 7.53472 -89.9315 11.8044 0.759429 0.0557391 0.133672 0.761142 0.0222544 -22.4031 0.707558 0.28141 -2.39043 0.707559 0.28141 90.8492 -29.8853 -105.113 39.8492 -8.40194 -4.61622 4.69235 -37.76 -16.2661 -22.4212 -0.448478 -10.2844 -86.2658 -51.3952 84.5411 -23.1345 11.2128 -10.7589 -4.26101 26.71 -0.00586156 9.3572 -1.07267 -19.6119 2.86162 1.46797 -0.524277 -9.25338 1.55768 -0.397365 
46.9443 102.452 -262.74 -110.722 -82.0371 -114.09 -173.373 -2.72992 90.6988 -8.33427 11.1463 0.621671 66.8462 5.40132 -1.62293 25.0084 -5.23429 8.83597 173.356 -2.01738 90.7676 -13.6788 -9.18348 -0.557868 69.8704 -5.30733 0.607913 26.4282 0.933619 0.739146 0.426899 7.57554 -89.8963 11.7227 0.897758 0.11232 0.0520475 0.901837 0.0726903 -22.4852 0.822497 0.376959 -2.47261 0.822494 0.376957 90.7492 -29.9378 -105.293 39.7138 -8.07714 -4.55982 4.34796 -37.9209 -16.4526 -23.2571 -0.51093 -9.80919 -86.3338 -50.7725 84.3464 -23.6314 10.5831 -10.6552 -4.19016 26.0263 -0.00582699 10.9608 -1.31702 -18.9923 2.56383 1.25969 -0.699382 -8.98737 1.38977 -0.659482 
46.2222 102.159 -262.723 -112.996 -82.443 -116.7 -173.706 -1.57496 90.6311 -10.913 10.7338 0.953566 67.8902 6.39451 -1.94286 25.6707 -4.97521 9.1675 173.076 -1.26785 90.7361 -15.755 -9.32428 -0.266147 70.9497 -5.71181 -0.023988 26.3729 0.80603 1.41268 0.447478 7.62684 -89.7847 11.619 0.991028 0.326261 -0.0515571 1.00442 0.282329 -22.5887 0.847152 0.609046 -2.5761 0.847155 0.609044 90.8969 -30.9561 -104.641 39.7264 -8.33131 -5.20531 4.85514 -38.0895 -15.935 -23.594 -0.574739 -9.40045 -86.3929 -49.9741 84.1361 -23.6444 9.29012 -10.0415 -3.54327 25.5839 -0.00580528 10.0004 -1.2412 -19.6351 1.78704 0.751323 -2.50048 -8.2366 1.10288 0.69475 
45.4994 101.65 -262.766 -120.239 -82.6044 -123.823 -174.362 1.11702 91.4801 -18.1982 9.7223 1.29406 69.8103 7.92668 -2.29173 27.416 -4.13003 9.65455 172.733 -0.505907 91.0572 -19.3129 -8.74795 0.204301 72.9203 -6.1456 -0.146271 26.145 0.785018 1.93561 0.526147 7.78429 -89.8541 11.3048 1.11507 0.179575 -0.36564 1.12189 0.130307 -22.904 1.00954 0.506423 -2.89135 1.00955 0.506429 90.869 -30.0731 -105.006 40.284 -8.41209 -4.81346 4.30009 -40.1882 -16.5596 -23.82 -0.93164 -7.73079 -86.0892 -51.4165 84.8055 -22.0172 8.82659 -10.0453 -3.50938 23.7379 -0.0876425 8.98186 -1.24314 -20.784 1.03372 0.491724 -0.424869 -7.723 0.59106 -1.12828 
